<svg width="740" height="740" version="1.1" xmlns="http://www.w3.org/2000/svg" desc="Created with imagetracer.js version 1.2.6" ><path fill="rgb(0,0,0)" stroke="rgb(0,0,0)" stroke-width="1" opacity="1" d="M 0 0 L 740 0 L 740 740 L 0 740 L 0 0 Z M 382 108 L 382 462 L 377 484 L 365 504 Q 357 513 346 520 L 330 527 L 314 530 L 303 530 L 302 529 L 290 528 L 271 520 L 264 512 L 260 502 L 257 487 L 257 472 L 259 461 Q 264 443 275 431 Q 290 412 319 406 L 344 406 L 353 409 L 354 409 L 354 318 L 348 317 L 331 317 L 331 295 L 325 294 L 291 294 L 258 301 Q 223 313 199 335 Q 178 353 164 379 L 151 410 L 145 441 L 145 472 L 150 499 Q 161 535 183 561 L 207 583 L 208 586 Q 230 611 262 626 L 289 636 L 310 640 L 319 640 L 320 641 L 352 640 L 380 634 L 391 630 Q 421 618 443 596 Q 445 597 444 594 L 446 594 L 446 592 L 448 592 L 463 574 L 478 549 L 488 522 L 492 503 L 492 495 L 493 494 L 493 303 L 524 320 L 553 332 L 590 340 L 615 341 L 616 340 L 616 255 L 615 253 L 602 252 L 596 250 L 593 250 L 593 232 L 592 230 L 573 228 L 549 222 Q 533 217 522 208 Q 511 196 504 182 L 497 164 L 493 145 L 493 131 L 472 131 L 470 121 L 470 109 L 470 108 L 382 108 Z " /><path fill="rgb(245,252,252)" stroke="rgb(245,252,252)" stroke-width="1" opacity="1" d="M 405 131 L 472 131.5 L 470.5 133 L 420.5 133 Q 419.3 130.8 414.5 132 L 409.5 133 L 407.5 132 Q 404.8 133.3 407 134.5 L 407 487.5 L 405 490.5 L 405 495.5 L 401 510 Q 398 508.8 399 512.5 L 389 526.5 L 389 529 L 387 529 Q 388.1 531.7 385.5 531 L 385.5 532 L 388 532.5 L 385.5 534 L 383 533 Q 384.3 536 380.5 535 Q 375.2 542.8 366 545 Q 367.3 548.3 362.5 547 L 355.5 551 Q 349.5 550 347.5 553 Q 340.1 552.1 336.5 555 L 326.5 555 Q 321.9 552.1 313.5 553 L 299.5 547 L 296 547 Q 297.3 544 293.5 545 L 273 527.5 Q 273.8 525.3 271.5 526 L 269 522 L 264.5 519 Q 263.3 521.3 262 518.5 L 264.5 518 L 266.5 519 Q 268.3 516.3 270 520.5 Q 275.7 531.3 285.5 538 L 294.5 544 L 308.5 550 Q 314.2 549.3 316.5 552 L 337.5 553 L 353.5 550 L 363.5 546 L 384 532 L 398 511.5 L 402 501.5 L 405 486.5 L 405 131 Z " /><path fill="rgb(245,252,252)" stroke="rgb(245,252,252)" stroke-width="1" opacity="1" d="M 481.5 163 L 483 166.5 L 482 166.5 L 481.5 163 Z " /><path fill="rgb(245,252,252)" stroke="rgb(245,252,252)" stroke-width="1" opacity="1" d="M 488.5 174 L 492 179.5 L 487 175.5 L 488.5 174 Z " /><path fill="rgb(245,252,252)" stroke="rgb(245,252,252)" stroke-width="1" opacity="1" d="M 500.5 190 L 501.5 192 Q 498.7 192.7 500.5 190 Z " /><path fill="rgb(245,252,252)" stroke="rgb(245,252,252)" stroke-width="1" opacity="1" d="M 505.5 196 L 508 197.5 L 509 199.5 L 505.5 196 Z " /><path fill="rgb(245,252,252)" stroke="rgb(245,252,252)" stroke-width="1" opacity="1" d="M 512.5 203 L 519 207.5 L 516 208 L 513.5 204 L 512.5 203 Z " /><path fill="rgb(245,252,252)" stroke="rgb(245,252,252)" stroke-width="1" opacity="1" d="M 520.5 207 L 522 210 Q 524.7 208.9 524 211.5 L 538.5 226 L 540 226 Q 538.9 228.7 541.5 228 L 558.5 240 L 574.5 246 L 592 250.5 L 588.5 251 Q 585.8 248.2 579.5 249 L 570.5 245 L 566.5 245 L 566.5 246 L 568 246.5 L 566.5 247 L 564.5 246 Q 563.3 248.3 562 245.5 Q 561.2 242.9 564.5 244 L 564.5 243 L 557.5 241 L 541 231 L 538.5 227 L 531 222 L 529.5 219 L 526 216.5 L 524 213.5 Q 520.1 211.3 520.5 207 Z " /><path fill="rgb(245,252,252)" stroke="rgb(245,252,252)" stroke-width="1" opacity="1" d="M 481.5 281 L 484 282.5 L 483.5 284 L 485.5 283 L 488 284.5 L 486 285.5 L 488 286.5 L 485 287 Q 486.1 284.3 483.5 285 L 481.5 281 Z " /><path fill="rgb(245,252,252)" stroke="rgb(245,252,252)" stroke-width="1" opacity="1" d="M 509.5 297 L 512.5 297 Q 514.5 300.2 519 300 L 520 302.5 L 518.5 303 Q 515.7 298.8 509.5 298 L 509.5 297 Z " /><path fill="rgb(245,252,252)" stroke="rgb(245,252,252)" stroke-width="1" opacity="1" d="M 568.5 314 L 575 314.5 L 568.5 315 L 568.5 314 Z " /><path fill="rgb(245,252,252)" stroke="rgb(245,252,252)" stroke-width="1" opacity="1" d="M 329.5 316 L 330 318 L 327.5 319 L 308.5 319 Q 304.3 322.3 296 321.5 L 296.5 323 L 289.5 323 L 282.5 325 L 280.5 327 L 270 329 Q 271.3 332.3 266.5 331 L 257 335 Q 258.3 338.3 253.5 337 L 246 341.5 L 246.5 343 L 243 343 Q 244.3 346 240.5 345 L 232 351.5 L 230.5 354 L 229 353.5 L 229 355 L 227 355 Q 228.1 357.7 225.5 357 L 222 359.5 L 211 373 L 205 377.5 L 206 379.5 L 201 382.5 L 199 386.5 L 199.5 388 L 197 387 L 187 404.5 L 185 411.5 L 183 413.5 L 183 416.5 L 183.5 418 L 181.5 417 L 179 425.5 L 177 427.5 L 177 432.5 L 175 434.5 Q 175.7 440.2 173 442.5 L 173 449.5 L 171 452.5 Q 172.4 463.4 169 469.5 L 169 488.5 L 171 495.5 L 171 504.5 L 173 510.5 L 173 515.5 Q 175.8 517.2 175 522.5 L 177 524.5 L 177 529.5 L 193 564 Q 196 562.8 195 566.5 L 200 571.5 L 206 581.5 L 202 578.5 L 189 559.5 L 180 541.5 L 174 524.5 L 168 492.5 L 168 463.5 L 174 432.5 L 186 403.5 Q 200.5 376.5 222.5 357 L 236 348 Q 234.9 345.3 237.5 346 L 252.5 336 L 280.5 324 L 305.5 318 L 328.5 317 L 329.5 316 Z " /><path fill="rgb(245,252,252)" stroke="rgb(245,252,252)" stroke-width="1" opacity="1" d="M 282.5 327 L 286 327.5 L 282.5 328 L 282.5 327 Z " /><path fill="rgb(245,252,252)" stroke="rgb(245,252,252)" stroke-width="1" opacity="1" d="M 238 348 Q 241 347 240 350 Q 237 351 238 348 Z " /><path fill="rgb(245,252,252)" stroke="rgb(245,252,252)" stroke-width="1" opacity="1" d="M 235.5 350 L 236.5 352 Q 233.7 352.7 235.5 350 Z " /><path fill="rgb(245,252,252)" stroke="rgb(245,252,252)" stroke-width="1" opacity="1" d="M 272.5 387 L 275 387.5 L 272 389 L 272.5 387 Z " /><path fill="rgb(245,252,252)" stroke="rgb(245,252,252)" stroke-width="1" opacity="1" d="M 266.5 392 L 268 392.5 L 263.5 395 L 263.5 394 L 266.5 392 Z " /><path fill="rgb(245,252,252)" stroke="rgb(245,252,252)" stroke-width="1" opacity="1" d="M 190 406 Q 193 405 192 408 Q 189 409 190 406 Z " /><path fill="rgb(245,252,252)" stroke="rgb(245,252,252)" stroke-width="1" opacity="1" d="M 242.5 416 L 243 418.5 L 242 418.5 L 242.5 416 Z " /><path fill="rgb(245,252,252)" stroke="rgb(245,252,252)" stroke-width="1" opacity="1" d="M 234.5 473 L 235 478.5 L 234 478.5 L 234.5 473 Z " /><path fill="rgb(245,252,252)" stroke="rgb(245,252,252)" stroke-width="1" opacity="1" d="M 248.5 503 L 250.5 506 L 248 504.5 L 248.5 503 Z " /><path fill="rgb(245,252,252)" stroke="rgb(245,252,252)" stroke-width="1" opacity="1" d="M 252.5 507 L 253 509 L 255 509 L 255 511 L 257 511 Q 255.9 513.7 258.5 513 L 260.5 516 L 254 512 L 252.5 507 Z " /><path fill="rgb(245,252,252)" stroke="rgb(245,252,252)" stroke-width="1" opacity="1" d="M 453.5 520 L 454 522.5 L 453 522.5 L 453.5 520 Z " /><path fill="rgb(245,252,252)" stroke="rgb(245,252,252)" stroke-width="1" opacity="1" d="M 450.5 526 L 451 528.5 L 450 528.5 L 450.5 526 Z " /><path fill="rgb(245,252,252)" stroke="rgb(245,252,252)" stroke-width="1" opacity="1" d="M 377.5 540 L 377 541.5 L 376.5 544 Q 373 542 377.5 540 Z " /><path fill="rgb(245,252,252)" stroke="rgb(245,252,252)" stroke-width="1" opacity="1" d="M 409.5 577 Q 412.1 576.3 411 579 Q 408.3 577.9 409 580.5 L 408 580.5 L 409.5 577 Z " /><path fill="rgb(245,252,252)" stroke="rgb(245,252,252)" stroke-width="1" opacity="1" d="M 392 586 Q 395 585 394 588 Q 391 589 392 586 Z " /><path fill="rgb(245,252,252)" stroke="rgb(245,252,252)" stroke-width="1" opacity="1" d="M 222.5 590 L 224.5 593 Q 222.3 593.8 223 591.5 L 222.5 590 Z " /><path fill="rgb(245,252,252)" stroke="rgb(245,252,252)" stroke-width="1" opacity="1" d="M 361.5 605 Q 364.1 604.3 363 607 L 360 606.5 L 361.5 605 Z " /><path fill="rgb(245,252,252)" stroke="rgb(245,252,252)" stroke-width="1" opacity="1" d="M 267.5 610 L 270 610.5 L 267.5 611 L 267.5 610 Z " /><path fill="rgb(245,252,252)" stroke="rgb(245,252,252)" stroke-width="1" opacity="1" d="M 332.5 614 L 335 614.5 L 332.5 615 L 332.5 614 Z " /><path fill="rgb(245,252,252)" stroke="rgb(245,252,252)" stroke-width="1" opacity="1" d="M 302.5 616 L 305 616.5 L 302.5 617 L 302.5 616 Z " /><path fill="rgb(54,222,218)" stroke="rgb(54,222,218)" stroke-width="1" opacity="1" d="M 382 108 L 469.5 108 L 470 110.5 L 469 110.5 L 468.5 109 L 383 109 L 383 462.5 L 381.5 470 L 381 462.5 L 382 461.5 L 382 108 Z " /><path fill="rgb(54,222,218)" stroke="rgb(54,222,218)" stroke-width="1" opacity="1" d="M 469.5 115 L 471 127.5 L 470 127.5 L 469.5 115 Z " /><path fill="rgb(54,222,218)" stroke="rgb(54,222,218)" stroke-width="1" opacity="1" d="M 405.5 130 L 472 130.5 L 405 131 L 404.5 487 L 404 131.5 L 405.5 130 Z " /><path fill="rgb(54,222,218)" stroke="rgb(54,222,218)" stroke-width="1" opacity="1" d="M 522.5 208 L 527 211 Q 525.8 214 529.5 213 Q 532.3 214.3 530 215.5 L 538.5 225 Q 551.6 237.4 571 243.5 L 568.5 244 L 554.5 238 L 540 228 Q 541.1 225.3 538.5 226 L 524 211.5 L 524 210 Q 520.8 211 522.5 208 Z " /><path fill="rgb(54,222,218)" stroke="rgb(54,222,218)" stroke-width="1" opacity="1" d="M 532.5 215 L 539 218.5 L 537.5 219 Q 532.9 217.8 532.5 215 Z " /><path fill="rgb(54,222,218)" stroke="rgb(54,222,218)" stroke-width="1" opacity="1" d="M 540.5 219 L 551 222.5 L 548.5 223 L 540.5 220 L 540.5 219 Z " /><path fill="rgb(54,222,218)" stroke="rgb(54,222,218)" stroke-width="1" opacity="1" d="M 552.5 223 L 557 224.5 L 554.5 225 L 552.5 223 Z " /><path fill="rgb(54,222,218)" stroke="rgb(54,222,218)" stroke-width="1" opacity="1" d="M 559.5 225 L 566 226.5 L 563.5 227 L 559.5 226 L 559.5 225 Z " /><path fill="rgb(54,222,218)" stroke="rgb(54,222,218)" stroke-width="1" opacity="1" d="M 567.5 227 L 572 227.5 L 567.5 228 L 567.5 227 Z " /><path fill="rgb(54,222,218)" stroke="rgb(54,222,218)" stroke-width="1" opacity="1" d="M 573.5 228 L 576 228.5 L 573.5 229 L 573.5 228 Z " /><path fill="rgb(54,222,218)" stroke="rgb(54,222,218)" stroke-width="1" opacity="1" d="M 578.5 229 L 590 230.5 L 585.5 231 Q 584 228.5 578.5 230 L 578.5 229 Z " /><path fill="rgb(54,222,218)" stroke="rgb(54,222,218)" stroke-width="1" opacity="1" d="M 591.5 230 L 593 231.5 L 593 250 L 581.5 248 L 572 244.5 L 574.5 244 L 592 249 L 592 232.5 L 591.5 230 Z " /><path fill="rgb(54,222,218)" stroke="rgb(54,222,218)" stroke-width="1" opacity="1" d="M 295.5 294 L 305 294.5 L 295.5 295 L 295.5 294 Z " /><path fill="rgb(54,222,218)" stroke="rgb(54,222,218)" stroke-width="1" opacity="1" d="M 311.5 294 L 321 294.5 L 311.5 295 L 311.5 294 Z " /><path fill="rgb(54,222,218)" stroke="rgb(54,222,218)" stroke-width="1" opacity="1" d="M 283.5 295 L 290 295.5 L 279.5 297 L 279.5 296 L 283.5 295 Z " /><path fill="rgb(54,222,218)" stroke="rgb(54,222,218)" stroke-width="1" opacity="1" d="M 325.5 295 Q 330.9 294.4 331 295.5 L 331 316 L 328.5 317 L 305.5 318 L 281.5 324 L 281.5 323 L 304.5 317 L 327.5 316 L 330 315 L 330 297.5 L 328.5 296 Q 324.5 296.8 325.5 295 Z " /><path fill="rgb(54,222,218)" stroke="rgb(54,222,218)" stroke-width="1" opacity="1" d="M 272.5 297 L 276 297.5 L 269.5 299 L 269.5 298 L 272.5 297 Z " /><path fill="rgb(54,222,218)" stroke="rgb(54,222,218)" stroke-width="1" opacity="1" d="M 264.5 299 L 267 299.5 L 264.5 300 L 264.5 299 Z " /><path fill="rgb(54,222,218)" stroke="rgb(54,222,218)" stroke-width="1" opacity="1" d="M 257.5 301 L 260 301.5 L 255.5 303 L 255.5 302 L 257.5 301 Z " /><path fill="rgb(54,222,218)" stroke="rgb(54,222,218)" stroke-width="1" opacity="1" d="M 251.5 303 L 254 303.5 L 250.5 305 L 251.5 303 Z " /><path fill="rgb(54,222,218)" stroke="rgb(54,222,218)" stroke-width="1" opacity="1" d="M 246.5 305 L 249 305.5 L 245.5 307 L 246.5 305 Z " /><path fill="rgb(54,222,218)" stroke="rgb(54,222,218)" stroke-width="1" opacity="1" d="M 241.5 307 L 244 307.5 L 240.5 309 L 241.5 307 Z " /><path fill="rgb(54,222,218)" stroke="rgb(54,222,218)" stroke-width="1" opacity="1" d="M 237.5 309 L 239 309.5 L 236.5 311 L 237.5 309 Z " /><path fill="rgb(54,222,218)" stroke="rgb(54,222,218)" stroke-width="1" opacity="1" d="M 233.5 311 L 235 311.5 L 225.5 317 L 226.5 315 L 233.5 311 Z " /><path fill="rgb(54,222,218)" stroke="rgb(54,222,218)" stroke-width="1" opacity="1" d="M 223.5 317 L 222.5 319 L 205.5 330 L 205.5 329 L 223.5 317 Z " /><path fill="rgb(54,222,218)" stroke="rgb(54,222,218)" stroke-width="1" opacity="1" d="M 277.5 324 L 280 324.5 L 267.5 330 L 264.5 330 L 236 346 Q 237.1 348.7 234.5 348 Q 220.6 357.1 210 369.5 Q 188.1 393.1 176 426.5 L 172 440.5 L 172 445.5 L 170 450.5 L 170 456.5 L 168 463.5 L 168 492.5 L 169 493.5 L 169 500.5 L 172 516.5 L 180 541.5 L 189 559.5 L 204 580.5 L 183 560.5 L 174 548.5 L 177 550.5 Q 183.8 561.7 193.5 570 L 194 568.5 L 187 558.5 L 178 539.5 L 173 524.5 L 167 494.5 L 167 463.5 L 173 431.5 L 183 406.5 Q 198.5 376 223.5 355 Q 237.9 342.4 255.5 333 L 277.5 324 Z " /><path fill="rgb(54,222,218)" stroke="rgb(54,222,218)" stroke-width="1" opacity="1" d="M 203.5 331 L 196.5 339 L 192 342.5 L 175.5 362 L 177 359.5 L 196.5 337 L 203.5 331 Z " /><path fill="rgb(54,222,218)" stroke="rgb(54,222,218)" stroke-width="1" opacity="1" d="M 174.5 363 L 173.5 365 L 174.5 363 Z " /><path fill="rgb(54,222,218)" stroke="rgb(54,222,218)" stroke-width="1" opacity="1" d="M 172.5 366 L 171.5 368 L 172.5 366 Z " /><path fill="rgb(54,222,218)" stroke="rgb(54,222,218)" stroke-width="1" opacity="1" d="M 170.5 369 L 170 370.5 L 163.5 382 L 163 380.5 L 170.5 369 Z " /><path fill="rgb(54,222,218)" stroke="rgb(54,222,218)" stroke-width="1" opacity="1" d="M 160.5 387 L 160 388.5 L 159.5 390 L 159 388.5 L 160.5 387 Z " /><path fill="rgb(54,222,218)" stroke="rgb(54,222,218)" stroke-width="1" opacity="1" d="M 158.5 391 L 159 392.5 L 157.5 395 L 157 393.5 L 158.5 391 Z " /><path fill="rgb(54,222,218)" stroke="rgb(54,222,218)" stroke-width="1" opacity="1" d="M 156.5 396 L 157 397.5 L 153.5 406 L 153 403.5 L 156.5 396 Z " /><path fill="rgb(54,222,218)" stroke="rgb(54,222,218)" stroke-width="1" opacity="1" d="M 152.5 407 L 153 409.5 L 151.5 413 L 151 409.5 L 152.5 407 Z " /><path fill="rgb(54,222,218)" stroke="rgb(54,222,218)" stroke-width="1" opacity="1" d="M 150.5 414 L 151 416.5 L 149.5 421 L 149 417.5 L 150.5 414 Z " /><path fill="rgb(54,222,218)" stroke="rgb(54,222,218)" stroke-width="1" opacity="1" d="M 148.5 423 L 149 425.5 L 147.5 432 L 147 426.5 L 148.5 423 Z " /><path fill="rgb(54,222,218)" stroke="rgb(54,222,218)" stroke-width="1" opacity="1" d="M 146.5 435 L 147 439.5 L 146 440.5 L 146 471.5 L 147 476.5 L 146 476.5 L 145 471.5 L 145 440.5 L 146.5 435 Z " /><path fill="rgb(54,222,218)" stroke="rgb(54,222,218)" stroke-width="1" opacity="1" d="M 379.5 475 L 380 477.5 L 379 477.5 L 379.5 475 Z " /><path fill="rgb(54,222,218)" stroke="rgb(54,222,218)" stroke-width="1" opacity="1" d="M 378.5 479 L 379 480.5 L 377.5 483 L 377 481.5 L 378.5 479 Z " /><path fill="rgb(54,222,218)" stroke="rgb(54,222,218)" stroke-width="1" opacity="1" d="M 147.5 480 L 149 488.5 L 148 488.5 L 147.5 480 Z " /><path fill="rgb(54,222,218)" stroke="rgb(54,222,218)" stroke-width="1" opacity="1" d="M 376.5 484 L 377 485.5 L 375.5 488 L 375 486.5 L 376.5 484 Z " /><path fill="rgb(54,222,218)" stroke="rgb(54,222,218)" stroke-width="1" opacity="1" d="M 403.5 488 L 404 493.5 L 396 515.5 L 384 532 L 367.5 544 L 353.5 550 L 337.5 553 L 326.5 553 L 326.5 552 L 344.5 551 L 360.5 546 Q 375.1 539.6 385 528.5 L 390 522.5 L 399 506.5 L 403.5 488 Z " /><path fill="rgb(54,222,218)" stroke="rgb(54,222,218)" stroke-width="1" opacity="1" d="M 374.5 489 L 374 490.5 L 373.5 492 L 373 490.5 L 374.5 489 Z " /><path fill="rgb(54,222,218)" stroke="rgb(54,222,218)" stroke-width="1" opacity="1" d="M 149.5 490 L 151 496.5 L 150 496.5 L 149.5 490 Z " /><path fill="rgb(54,222,218)" stroke="rgb(54,222,218)" stroke-width="1" opacity="1" d="M 372.5 493 L 372 494.5 L 361.5 508 L 365 503.5 L 372.5 493 Z " /><path fill="rgb(54,222,218)" stroke="rgb(54,222,218)" stroke-width="1" opacity="1" d="M 151.5 499 L 153 503.5 L 152 503.5 L 151.5 499 Z " /><path fill="rgb(54,222,218)" stroke="rgb(54,222,218)" stroke-width="1" opacity="1" d="M 153.5 505 L 154 507.5 L 153 507.5 L 153.5 505 Z " /><path fill="rgb(54,222,218)" stroke="rgb(54,222,218)" stroke-width="1" opacity="1" d="M 359.5 509 L 355.5 514 L 351.5 517 L 354.5 513 L 359.5 509 Z " /><path fill="rgb(54,222,218)" stroke="rgb(54,222,218)" stroke-width="1" opacity="1" d="M 155.5 511 L 157 514.5 L 155 513.5 L 155.5 511 Z " /><path fill="rgb(54,222,218)" stroke="rgb(54,222,218)" stroke-width="1" opacity="1" d="M 157.5 516 Q 163.7 533.3 174 546.5 L 171 544.5 L 157 518.5 L 157.5 516 Z " /><path fill="rgb(54,222,218)" stroke="rgb(54,222,218)" stroke-width="1" opacity="1" d="M 349.5 517 L 347.5 520 L 345.5 521 L 346.5 519 L 349.5 517 Z " /><path fill="rgb(54,222,218)" stroke="rgb(54,222,218)" stroke-width="1" opacity="1" d="M 268.5 518 L 275 522.5 L 273 522.5 Q 276 530 282.5 534 Q 294.4 544.6 312 549.5 L 308.5 550 Q 286 542.5 273 525.5 L 268.5 518 Z " /><path fill="rgb(54,222,218)" stroke="rgb(54,222,218)" stroke-width="1" opacity="1" d="M 342.5 521 L 344 521.5 L 341.5 523 L 342.5 521 Z " /><path fill="rgb(54,222,218)" stroke="rgb(54,222,218)" stroke-width="1" opacity="1" d="M 276.5 523 L 279 524.5 L 277.5 524 L 276.5 523 Z " /><path fill="rgb(54,222,218)" stroke="rgb(54,222,218)" stroke-width="1" opacity="1" d="M 338.5 523 L 340 523.5 L 331.5 527 L 331.5 526 L 338.5 523 Z " /><path fill="rgb(54,222,218)" stroke="rgb(54,222,218)" stroke-width="1" opacity="1" d="M 280.5 525 L 285 526.5 L 283.5 527 L 280.5 526 L 280.5 525 Z " /><path fill="rgb(54,222,218)" stroke="rgb(54,222,218)" stroke-width="1" opacity="1" d="M 286.5 527 L 289 527.5 L 286.5 528 L 286.5 527 Z " /><path fill="rgb(54,222,218)" stroke="rgb(54,222,218)" stroke-width="1" opacity="1" d="M 326.5 527 L 330 527.5 L 324.5 529 L 324.5 528 L 326.5 527 Z " /><path fill="rgb(54,222,218)" stroke="rgb(54,222,218)" stroke-width="1" opacity="1" d="M 294.5 529 L 301 529.5 L 294.5 530 L 294.5 529 Z " /><path fill="rgb(54,222,218)" stroke="rgb(54,222,218)" stroke-width="1" opacity="1" d="M 314.5 529 L 322 529.5 L 314.5 531 L 302.5 531 L 302.5 530 L 313.5 530 L 314.5 529 Z " /><path fill="rgb(54,222,218)" stroke="rgb(54,222,218)" stroke-width="1" opacity="1" d="M 313.5 550 L 325 551.5 L 316.5 552 L 313.5 551 L 313.5 550 Z " /><path fill="rgb(254,254,254)" stroke="rgb(254,254,254)" stroke-width="1" opacity="1" d="M 408.5 132 L 409.5 133 L 470.5 133 L 472 132.5 L 475 145.5 L 479 154.5 L 478.5 156 Q 480.8 155.3 480 157.5 Q 492.3 183.2 512.5 201 L 521 208.5 L 520 211 L 523 212.5 Q 521.9 215.8 524.5 215 L 531 220.5 L 531.5 223 Q 532.8 220.8 534 223.5 Q 534.8 226.1 531.5 225 L 527.5 225 L 519 224 L 519 216 L 512 216 L 512 209 L 506.5 209 L 503 208 L 503 200 L 505.5 200 L 508 199 L 506.5 196 L 504.5 197 L 503 193 L 501 192.5 Q 503.3 191.3 500.5 190 Q 499.3 192.3 498 189.5 Q 498.8 187.3 496.5 188 L 495.5 186 L 497 185.5 L 495 185 L 494.5 183 L 493 183.5 L 492.5 181 L 492 184 L 480 184 L 480 177.5 L 478 175.5 L 478 168 Q 481.7 169.5 481 166.5 L 477 158.5 L 477 155.5 L 475 153.5 L 475 150.5 L 473 148.5 L 473 143.5 L 471 139.5 L 471 137.5 L 470.5 136 L 429 136 Q 427.9 139.3 432 138 L 432 144 L 418 144 L 418 137.5 L 421 135.5 L 417.5 135 L 415.5 135 L 412.5 134 L 412.5 136 L 409 135.5 L 409.5 134 L 407.5 135 L 407 133.5 L 408.5 132 Z M 422 134 L 422 135 L 426 135 L 422 134 Z M 482 163 L 482 167 L 483 167 L 482 163 Z M 489 174 L 487 176 L 489 177 L 489 174 Z M 515 204 Q 513 207 516 206 L 515 204 Z M 516 206 L 516 208 Q 518 211 519 208 L 516 206 Z M 520 213 L 520 217 Q 523 218 522 214 L 520 213 Z M 526 222 L 526 224 L 530 223 L 526 222 Z " /><path fill="rgb(254,254,254)" stroke="rgb(254,254,254)" stroke-width="1" opacity="1" d="M 409.5 137 L 413 138.5 L 410.5 139 L 409 138.5 L 408 143.5 L 407.5 481 L 407 138 L 409.5 137 Z " /><path fill="rgb(254,254,254)" stroke="rgb(254,254,254)" stroke-width="1" opacity="1" d="M 535 226 L 538 227.5 L 541 231.5 L 539 232 L 536.5 228 Q 533.9 228.7 535 226 Z " /><path fill="rgb(254,254,254)" stroke="rgb(254,254,254)" stroke-width="1" opacity="1" d="M 553.5 238 L 555 241 L 551 239.5 L 553.5 238 Z " /><path fill="rgb(254,254,254)" stroke="rgb(254,254,254)" stroke-width="1" opacity="1" d="M 560 243 L 563 243.5 L 562 245.5 Q 563.3 248.3 564.5 246 L 569 245 Q 567.9 248.5 575.5 247 L 576.5 249 L 574.5 248 L 571.5 249 L 566 248 L 565.5 250 L 561 247 L 560 243 Z " /><path fill="rgb(254,254,254)" stroke="rgb(254,254,254)" stroke-width="1" opacity="1" d="M 586.5 251 Q 591.9 250.4 592 251.5 L 592 317 L 570.5 317 L 569.5 316 L 546.5 313 L 531.5 309 Q 497.8 297.7 471 279.5 L 474 279 Q 472.9 281.7 475.5 281 L 477.5 280 L 479 280.5 L 479.5 279 L 481.5 282 L 483 281.5 L 482 283.5 L 485 282.5 Q 485.8 284.8 483.5 284 L 483.5 285 Q 486.1 284.3 485 287 L 487.5 287 L 487.5 286 L 486 285.5 L 488 284.5 L 486 283.5 L 488 283 L 488 280 L 496 280 Q 497.7 286.1 494.5 288 L 492 288.5 L 492.5 291 L 494.5 290 L 496.5 293 L 498.5 293 L 502.5 295 L 505.5 294 L 505.5 295 L 503 295.5 L 513.5 299 L 515.5 298 L 515.5 299 L 514 299.5 L 518.5 303 L 521.5 303 L 527.5 306 L 530.5 305 L 534.5 308 L 543 309 Q 541.9 312.5 549.5 311 L 551.5 311 Q 555.8 310.3 556.5 313 L 561.5 313 L 563.5 315 L 564 313 L 573 313.5 L 568 314.5 L 575.5 315 L 576.5 314 L 591 314 L 591 253.5 L 588.5 253 L 586.5 253 L 585 252.5 L 586.5 251 Z M 493 284 L 489 289 L 493 286 L 493 284 Z M 578 315 L 578 316 L 589 316 L 578 315 Z " /><path fill="rgb(254,254,254)" stroke="rgb(254,254,254)" stroke-width="1" opacity="1" d="M 468 278 L 470 278.5 L 469 279.5 L 469 447.5 L 470 448.5 L 470 464.5 L 469 465.5 L 469 475.5 L 465 496.5 L 453 528.5 Q 438.7 556.2 416.5 576 Q 398.8 592.3 375.5 603 Q 357.6 611.9 335 615 Q 333.6 611 340.5 613 L 343.5 611 L 350.5 611 L 359.5 607 L 363 607 Q 364.1 604.3 361.5 605 L 360 605.5 Q 359.1 602.5 363.5 604 L 366.5 605 L 376 601 Q 374.6 597.3 380.5 599 L 395 591 Q 393.8 587.3 399 589 L 399 586.5 L 401 586.5 Q 400.3 584.3 402.5 585 L 407 583 Q 405.8 577.5 409.5 576 Q 415 577 416 573.5 Q 414.8 569.8 418.5 571 L 424 566.5 L 423.5 565 L 425 565.5 L 425.5 563 L 427 563.5 L 428 561.5 Q 425.8 560.3 428.5 559 Q 432.3 560.3 431 556.5 Q 433 552.8 435 554.5 L 435 552.5 L 440 547.5 L 439.5 546 L 441 546.5 L 440 543.5 L 441.5 543 L 443 543.5 L 443 541 Q 445.7 542.1 445 539.5 L 443.5 537 L 445.5 538 Q 448.8 534.4 448 528 L 450.5 529 Q 449.9 524.4 452.5 523 Q 455.9 523.9 454 518.5 L 457 517 L 463 498.5 L 463 494.5 L 465 491.5 Q 463.3 485.3 466 483.5 L 465 481.5 L 466 479.5 L 465 474.5 L 467 470.5 L 466 468.5 L 468 464.5 L 467 463.5 L 467 450 Q 469.7 451.1 469 448.5 L 468 447.5 L 468 278 Z M 410 577 L 408 581 L 409 581 Q 408 578 411 579 Q 412 576 410 577 Z " /><path fill="rgb(254,254,254)" stroke="rgb(254,254,254)" stroke-width="1" opacity="1" d="M 329.5 318 L 330 385 L 323 383.5 L 327 383 L 328 378.5 L 328 336 L 320 336 L 320 321 L 310.5 321 L 308 319.5 L 328.5 319 L 329.5 318 Z " /><path fill="rgb(254,254,254)" stroke="rgb(254,254,254)" stroke-width="1" opacity="1" d="M 297 321 L 304.5 321 L 305 322.5 L 304 326 L 295.5 328 L 292.5 327 L 289.5 331 L 290 329.5 L 290 323 L 296.5 323 L 297 321 Z " /><path fill="rgb(254,254,254)" stroke="rgb(254,254,254)" stroke-width="1" opacity="1" d="M 282.5 325 L 288 325 L 288 336 L 267.5 336 L 258 342.5 Q 258.6 345.3 252.5 344 L 251 341.5 L 251.5 340 L 250 339.5 L 252.5 339 L 255 340.5 L 254.5 342 L 257 340.5 Q 258.3 336.8 254.5 338 L 254.5 337 L 265.5 333 L 271.5 329 L 276 329 Q 274.6 325.3 280.5 327 L 282.5 325 Z M 283 327 L 283 328 L 286 328 L 283 327 Z " /><path fill="rgb(254,254,254)" stroke="rgb(254,254,254)" stroke-width="1" opacity="1" d="M 240.5 346 L 241 348.5 L 240 350.5 L 240 360 Q 233.1 359 230 361 Q 228.9 358.3 231.5 359 L 231.5 356 Q 227.8 357.3 229 353.5 L 230.5 354 L 235.5 349 L 240 350 Q 241.1 347.3 238.5 348 L 238.5 347 L 240.5 346 Z M 236 350 Q 234 353 237 352 L 236 350 Z " /><path fill="rgb(254,254,254)" stroke="rgb(254,254,254)" stroke-width="1" opacity="1" d="M 227.5 357 Q 230.1 356.3 229 359 L 225 360.5 L 224 368 L 217.5 368 L 216 369.5 L 216 384 L 210.5 384 L 208 385 L 208 400 L 195 400 Q 193.8 394.5 197.5 393 Q 199.8 393.8 199 391.5 Q 202.5 390 200 388.5 L 199 386.5 L 203 384 L 204.5 380 L 206 379.5 L 206 377.5 L 209.5 373 Q 211.8 373.8 211 371.5 L 219.5 363 L 221 363 L 223.5 358 L 225.5 359 L 227.5 357 Z " /><path fill="rgb(254,254,254)" stroke="rgb(254,254,254)" stroke-width="1" opacity="1" d="M 296 376 L 311.5 376 L 312 381 L 320.5 381 L 321.5 383 L 300.5 382 L 286.5 385 L 287.5 383 Q 293.7 383.6 296 381 L 296 376 Z " /><path fill="rgb(254,254,254)" stroke="rgb(254,254,254)" stroke-width="1" opacity="1" d="M 279 384 L 285 385.5 Q 262.1 393.1 249 410.5 L 238 429.5 L 234 444.5 L 233.5 455 L 233 444.5 L 235 434.5 L 240 422.5 L 239.5 421 L 241 421.5 L 241 419 Q 243.7 420.1 243 417.5 L 246 411 L 249 409.5 L 249.5 407 Q 250.8 409.3 252 406.5 L 252.5 404 Q 253.8 406.3 255 403.5 L 259.5 398 L 262.5 396 L 265 394.5 L 263.5 392 Q 265 395.5 266.5 393 Q 269.1 393.7 268 391 L 270.5 391 Q 273.3 389.8 271 388.5 L 271.5 387 L 272 389 Q 275.7 390.5 275 387.5 L 277.5 387 Q 280.5 387.7 279 384 Z " /><path fill="rgb(254,254,254)" stroke="rgb(254,254,254)" stroke-width="1" opacity="1" d="M 197.5 388 L 198 390 L 196 389.5 L 197.5 388 Z " /><path fill="rgb(254,254,254)" stroke="rgb(254,254,254)" stroke-width="1" opacity="1" d="M 191.5 398 Q 194.1 397.3 193 400 L 191 400.5 L 191.5 402 L 190 401.5 L 189 404.5 L 193 405 L 193.5 408 L 208 408 L 208 416 L 192 416 L 192 432 L 178.5 432 L 177 432.5 L 177 427.5 Q 180 426.3 179 422 Q 183.5 423.8 182 418.5 L 185 419.5 L 184 415.5 L 185 412.5 L 185 409.5 L 189 400.5 L 191.5 398 Z M 189 406 Q 188 409 192 408 Q 193 405 189 406 Z M 185 422 L 183 427 L 185 426 L 185 422 Z M 183 427 L 182 430 L 183 430 L 183 427 Z " /><path fill="rgb(254,254,254)" stroke="rgb(254,254,254)" stroke-width="1" opacity="1" d="M 175 436 Q 178.7 434.6 177 440.5 L 176.5 442 Q 178.8 441.3 178 443.5 L 176 453.5 L 174 455.5 L 175 457.5 L 174 457.5 Q 174.7 454.9 172 456 L 173 461.5 L 171.5 467 L 171 452.5 L 173 450.5 L 173 442.5 Q 176.3 441 175 436 Z " /><path fill="rgb(254,254,254)" stroke="rgb(254,254,254)" stroke-width="1" opacity="1" d="M 233.5 457 L 235 472.5 L 233.5 475 L 233 473.5 L 233.5 472 Q 231.3 472.8 232 470.5 L 233 466.5 Q 230.8 465.3 232 460.5 L 233.5 457 Z " /><path fill="rgb(254,254,254)" stroke="rgb(254,254,254)" stroke-width="1" opacity="1" d="M 169.5 472 L 171.5 480 L 172.5 476 L 174 480 Q 171 478.8 172 482.5 L 169.5 486 L 169.5 472 Z " /><path fill="rgb(254,254,254)" stroke="rgb(254,254,254)" stroke-width="1" opacity="1" d="M 235.5 474 Q 241.6 497.4 257.5 511 L 267 518.5 L 265 519.5 L 270 526 L 282 535.5 L 281.5 537 L 284 537 Q 282.9 539.7 285.5 539 L 291 542 Q 289.9 544.7 292.5 544 L 296 546.5 L 296.5 548 L 299.5 547 Q 300.6 549.8 304 549 Q 302.6 553 309.5 551 L 311.5 553 Q 321.1 551.9 326.5 555 L 341 555 Q 339.9 552.3 342.5 553 L 344.5 554 L 349.5 552 Q 351 554.5 352.5 551 L 356.5 551 L 361.5 548 Q 364.3 549.3 362 550.5 Q 361.2 553.5 365 552 L 365.5 550 L 367.5 551 Q 368.8 548.8 370 551.5 L 368 552 L 368 559.5 L 367.5 560 L 304 560 L 304 553.5 L 302 550 L 295 549 Q 296.3 546 292.5 547 Q 291 543.5 289.5 546 L 288 545.5 L 290 544.5 L 283 541 L 283 539 L 281 539 L 281 537 L 279 537 L 279 535 L 277 535 L 277 533 L 275 533 L 275 531 L 273 531 L 273 529 Q 270.3 530.1 271 527.5 L 269 526.5 L 268.5 528 L 268 526 L 264.5 527 L 263 524.5 L 264 522 Q 261 523.3 262 519.5 L 261 517 L 258 515.5 L 260 514.5 L 257.5 513 L 255.5 513 L 254 512.5 L 255.5 512 L 257 512.5 L 257 511 L 255 511 Q 256.1 508.3 253.5 509 L 252.5 512 L 249 511 L 248.5 508 L 245.5 512 L 240 512 L 240 505.5 L 238 503.5 L 238 496 Q 241.8 497.5 241 494.5 L 238.5 489 L 237 489.5 Q 237.7 486.5 234 488 L 234 485.5 L 235 482.5 L 234 479.5 L 235.5 474 Z M 249 503 L 248 505 L 251 506 L 249 503 Z M 263 518 Q 263 522 265 519 L 263 518 Z " /><path fill="rgb(254,254,254)" stroke="rgb(254,254,254)" stroke-width="1" opacity="1" d="M 407.5 487 L 410 495.5 L 406 498 L 406 503.5 L 402 509.5 L 402 512 L 400 512.5 Q 402.5 514 399 515.5 L 397 518.5 L 401 520 L 401 528 L 398.5 528 L 393.5 530 L 391.5 527 L 391 528.5 Q 393.5 530 390 531.5 L 388.5 534 L 385.5 536 L 384 540 Q 380.7 538.7 382 543.5 L 377.5 546 L 373.5 543 L 371.5 544 L 371.5 543 L 376 541 Q 374.7 537.7 379.5 539 L 382 537.5 L 380.5 535 L 383 535 Q 381.9 532.3 384.5 533 L 386.5 534 L 387.5 532 L 385 531.5 L 387 531 L 387 529 Q 389.7 530.1 389 527.5 L 395 518 L 398 516.5 L 397.5 515 Q 400.5 515.9 399 511.5 L 402 508.5 L 401 507.5 L 408 493.5 Q 405.4 491.9 407.5 487 Z M 377 541 L 375 543 L 377 544 L 377 541 Z " /><path fill="rgb(254,254,254)" stroke="rgb(254,254,254)" stroke-width="1" opacity="1" d="M 171.5 488 L 173 494.5 L 171 493.5 L 171.5 488 Z " /><path fill="rgb(254,254,254)" stroke="rgb(254,254,254)" stroke-width="1" opacity="1" d="M 171.5 498 Q 174.5 498.5 174 502.5 Q 171.5 504 175 505.5 Q 174 511.5 177 513.5 L 176 517.5 L 177 520.5 L 175.5 523 L 174 515.5 L 175 512.5 L 174 512.5 L 173.5 514 Q 173.8 507.8 171 504.5 L 171 502.5 L 171.5 498 Z " /><path fill="rgb(254,254,254)" stroke="rgb(254,254,254)" stroke-width="1" opacity="1" d="M 179.5 529 L 180 531.5 L 179 531.5 L 179.5 529 Z " /><path fill="rgb(254,254,254)" stroke="rgb(254,254,254)" stroke-width="1" opacity="1" d="M 363.5 547 Q 370.4 545 369 549 Q 363.3 550.2 363.5 547 Z " /><path fill="rgb(254,254,254)" stroke="rgb(254,254,254)" stroke-width="1" opacity="1" d="M 188.5 550 Q 192.5 550.5 192 555.5 Q 190.5 558.5 189 555.5 L 188.5 550 Z " /><path fill="rgb(254,254,254)" stroke="rgb(254,254,254)" stroke-width="1" opacity="1" d="M 193.5 560 L 195 563 Q 191.5 564.1 193.5 560 Z " /><path fill="rgb(254,254,254)" stroke="rgb(254,254,254)" stroke-width="1" opacity="1" d="M 195.5 564 L 197 567 L 201 569.5 L 200.5 573 L 195 565.5 L 195.5 564 Z " /><path fill="rgb(254,254,254)" stroke="rgb(254,254,254)" stroke-width="1" opacity="1" d="M 207.5 574 L 208 576 L 210 576.5 L 208.5 577 L 207.5 574 Z " /><path fill="rgb(254,254,254)" stroke="rgb(254,254,254)" stroke-width="1" opacity="1" d="M 207.5 579 L 207.5 581 L 209 581.5 L 207.5 582 Q 204.5 580.5 207.5 579 Z " /><path fill="rgb(254,254,254)" stroke="rgb(254,254,254)" stroke-width="1" opacity="1" d="M 208.5 583 L 210.5 584 L 213.5 583 L 219.5 586 L 224 586 Q 222.8 591.5 226.5 593 L 230 594.5 L 228 595.5 L 231.5 597 L 231.5 595 L 240.5 600 L 242 599.5 L 240.5 602 L 250 606.5 L 248.5 606 Q 224 598.1 208.5 583 Z M 224 591 Q 222 594 225 593 L 224 591 Z M 233 597 L 234 599 L 235 599 L 233 597 Z " /><path fill="rgb(254,254,254)" stroke="rgb(254,254,254)" stroke-width="1" opacity="1" d="M 251.5 606 L 257 607 Q 258.3 610 254.5 609 L 251 608 L 251.5 606 Z " /><path fill="rgb(254,254,254)" stroke="rgb(254,254,254)" stroke-width="1" opacity="1" d="M 258.5 608 L 266 609.5 L 264 610.5 L 268.5 612 L 272.5 611 L 275.5 612 L 287.5 615 L 298.5 615 L 300.5 616 L 305.5 615 L 307.5 616 L 311.5 615 L 313.5 616 L 316.5 615 Q 326 616.5 331.5 614 L 332.5 616 L 305.5 617 L 302.5 616 L 301.5 617 L 289.5 617 L 288.5 616 L 271.5 614 L 258 610 L 258.5 608 Z " /><path fill="rgb(251,170,185)" stroke="rgb(251,170,185)" stroke-width="1" opacity="1" d="M 472.5 132 L 473 134.5 L 472 134.5 L 472.5 132 Z " /><path fill="rgb(251,170,185)" stroke="rgb(251,170,185)" stroke-width="1" opacity="1" d="M 475.5 143 L 477 147.5 L 476 147.5 L 475.5 143 Z " /><path fill="rgb(251,170,185)" stroke="rgb(251,170,185)" stroke-width="1" opacity="1" d="M 479.5 154 L 485 164.5 L 483 163.5 L 479 155.5 L 479.5 154 Z " /><path fill="rgb(251,170,185)" stroke="rgb(251,170,185)" stroke-width="1" opacity="1" d="M 485.5 166 L 487 168.5 L 485 167.5 L 485.5 166 Z " /><path fill="rgb(251,170,185)" stroke="rgb(251,170,185)" stroke-width="1" opacity="1" d="M 487.5 170 L 488.5 172 L 487.5 170 Z " /><path fill="rgb(251,170,185)" stroke="rgb(251,170,185)" stroke-width="1" opacity="1" d="M 489.5 173 L 490.5 175 L 489.5 173 Z " /><path fill="rgb(251,170,185)" stroke="rgb(251,170,185)" stroke-width="1" opacity="1" d="M 491.5 176 L 492.5 178 L 491.5 176 Z " /><path fill="rgb(251,170,185)" stroke="rgb(251,170,185)" stroke-width="1" opacity="1" d="M 493.5 179 L 495.5 182 L 493.5 179 Z " /><path fill="rgb(251,170,185)" stroke="rgb(251,170,185)" stroke-width="1" opacity="1" d="M 497.5 184 L 499.5 187 L 497.5 184 Z " /><path fill="rgb(251,170,185)" stroke="rgb(251,170,185)" stroke-width="1" opacity="1" d="M 502.5 190 L 512.5 201 L 502.5 190 Z " /><path fill="rgb(251,170,185)" stroke="rgb(251,170,185)" stroke-width="1" opacity="1" d="M 516.5 203 L 519.5 207 L 516.5 203 Z " /><path fill="rgb(251,170,185)" stroke="rgb(251,170,185)" stroke-width="1" opacity="1" d="M 592.5 250 L 593 316.5 L 591.5 318 L 574.5 318 L 574.5 317 L 591.5 317 L 592 316.5 L 592.5 250 Z " /><path fill="rgb(251,170,185)" stroke="rgb(251,170,185)" stroke-width="1" opacity="1" d="M 469 279 L 471 279.5 L 470 280.5 L 469.5 448 L 469 279 Z " /><path fill="rgb(251,170,185)" stroke="rgb(251,170,185)" stroke-width="1" opacity="1" d="M 472.5 280 L 473.5 282 L 472.5 280 Z " /><path fill="rgb(251,170,185)" stroke="rgb(251,170,185)" stroke-width="1" opacity="1" d="M 477.5 283 L 478.5 285 L 477.5 283 Z " /><path fill="rgb(251,170,185)" stroke="rgb(251,170,185)" stroke-width="1" opacity="1" d="M 482.5 286 L 486 288.5 L 484.5 288 L 482.5 286 Z " /><path fill="rgb(251,170,185)" stroke="rgb(251,170,185)" stroke-width="1" opacity="1" d="M 491.5 291 L 508 299.5 L 506.5 300 L 492.5 293 L 491.5 291 Z " /><path fill="rgb(251,170,185)" stroke="rgb(251,170,185)" stroke-width="1" opacity="1" d="M 511.5 301 L 515 302.5 L 513.5 303 L 511.5 301 Z " /><path fill="rgb(251,170,185)" stroke="rgb(251,170,185)" stroke-width="1" opacity="1" d="M 532.5 309 L 535 309.5 L 532.5 310 L 532.5 309 Z " /><path fill="rgb(251,170,185)" stroke="rgb(251,170,185)" stroke-width="1" opacity="1" d="M 548.5 313 L 551 313.5 L 548.5 314 L 548.5 313 Z " /><path fill="rgb(251,170,185)" stroke="rgb(251,170,185)" stroke-width="1" opacity="1" d="M 553.5 314 L 556 314.5 L 553.5 315 L 553.5 314 Z " /><path fill="rgb(251,170,185)" stroke="rgb(251,170,185)" stroke-width="1" opacity="1" d="M 559.5 315 L 563 315.5 L 559.5 316 L 559.5 315 Z " /><path fill="rgb(251,170,185)" stroke="rgb(251,170,185)" stroke-width="1" opacity="1" d="M 330.5 316 L 331 386 L 328 385.5 L 330 385 L 330.5 316 Z " /><path fill="rgb(251,170,185)" stroke="rgb(251,170,185)" stroke-width="1" opacity="1" d="M 565.5 316 L 570 316.5 L 565.5 317 L 565.5 316 Z " /><path fill="rgb(251,170,185)" stroke="rgb(251,170,185)" stroke-width="1" opacity="1" d="M 300.5 382 L 316 382.5 L 300.5 383 L 300.5 382 Z " /><path fill="rgb(251,170,185)" stroke="rgb(251,170,185)" stroke-width="1" opacity="1" d="M 293.5 383 L 297 383.5 L 293.5 384 L 293.5 383 Z " /><path fill="rgb(251,170,185)" stroke="rgb(251,170,185)" stroke-width="1" opacity="1" d="M 319.5 383 L 323 383.5 L 319.5 384 L 319.5 383 Z " /><path fill="rgb(251,170,185)" stroke="rgb(251,170,185)" stroke-width="1" opacity="1" d="M 289.5 384 L 292 384.5 L 289.5 385 L 289.5 384 Z " /><path fill="rgb(251,170,185)" stroke="rgb(251,170,185)" stroke-width="1" opacity="1" d="M 324.5 384 L 327 384.5 L 324.5 385 L 324.5 384 Z " /><path fill="rgb(251,170,185)" stroke="rgb(251,170,185)" stroke-width="1" opacity="1" d="M 275.5 389 L 277 389.5 L 274.5 391 L 275.5 389 Z " /><path fill="rgb(251,170,185)" stroke="rgb(251,170,185)" stroke-width="1" opacity="1" d="M 268.5 393 L 267.5 395 L 268.5 393 Z " /><path fill="rgb(251,170,185)" stroke="rgb(251,170,185)" stroke-width="1" opacity="1" d="M 265.5 395 L 264.5 397 L 265.5 395 Z " /><path fill="rgb(251,170,185)" stroke="rgb(251,170,185)" stroke-width="1" opacity="1" d="M 262.5 397 L 258.5 402 L 262.5 397 Z " /><path fill="rgb(251,170,185)" stroke="rgb(251,170,185)" stroke-width="1" opacity="1" d="M 252.5 407 L 249.5 411 L 252.5 407 Z " /><path fill="rgb(251,170,185)" stroke="rgb(251,170,185)" stroke-width="1" opacity="1" d="M 248.5 412 L 246.5 415 L 248.5 412 Z " /><path fill="rgb(251,170,185)" stroke="rgb(251,170,185)" stroke-width="1" opacity="1" d="M 244.5 418 L 243.5 420 L 244.5 418 Z " /><path fill="rgb(251,170,185)" stroke="rgb(251,170,185)" stroke-width="1" opacity="1" d="M 236.5 435 L 237 437.5 L 236 437.5 L 236.5 435 Z " /><path fill="rgb(251,170,185)" stroke="rgb(251,170,185)" stroke-width="1" opacity="1" d="M 235.5 439 L 236 441.5 L 235 441.5 L 235.5 439 Z " /><path fill="rgb(251,170,185)" stroke="rgb(251,170,185)" stroke-width="1" opacity="1" d="M 234.5 444 L 235 448.5 L 234 448.5 L 234.5 444 Z " /><path fill="rgb(251,170,185)" stroke="rgb(251,170,185)" stroke-width="1" opacity="1" d="M 234.5 464 L 235 467.5 L 234 467.5 L 234.5 464 Z " /><path fill="rgb(251,170,185)" stroke="rgb(251,170,185)" stroke-width="1" opacity="1" d="M 469.5 465 L 470 472.5 L 469 472.5 L 469.5 465 Z " /><path fill="rgb(251,170,185)" stroke="rgb(251,170,185)" stroke-width="1" opacity="1" d="M 235.5 470 L 236 473.5 L 235 473.5 L 235.5 470 Z " /><path fill="rgb(251,170,185)" stroke="rgb(251,170,185)" stroke-width="1" opacity="1" d="M 468.5 476 L 469 479.5 L 468 479.5 L 468.5 476 Z " /><path fill="rgb(251,170,185)" stroke="rgb(251,170,185)" stroke-width="1" opacity="1" d="M 237.5 478 L 239 482.5 L 238 482.5 L 237.5 478 Z " /><path fill="rgb(251,170,185)" stroke="rgb(251,170,185)" stroke-width="1" opacity="1" d="M 467.5 483 L 468 485.5 L 467 485.5 L 467.5 483 Z " /><path fill="rgb(251,170,185)" stroke="rgb(251,170,185)" stroke-width="1" opacity="1" d="M 241.5 488 L 243 490.5 L 241 489.5 L 241.5 488 Z " /><path fill="rgb(251,170,185)" stroke="rgb(251,170,185)" stroke-width="1" opacity="1" d="M 466.5 488 L 467 490.5 L 466 490.5 L 466.5 488 Z " /><path fill="rgb(251,170,185)" stroke="rgb(251,170,185)" stroke-width="1" opacity="1" d="M 465.5 493 L 466 495.5 L 465 495.5 L 465.5 493 Z " /><path fill="rgb(251,170,185)" stroke="rgb(251,170,185)" stroke-width="1" opacity="1" d="M 245.5 496 L 251 502.5 L 247 499.5 L 245.5 496 Z " /><path fill="rgb(251,170,185)" stroke="rgb(251,170,185)" stroke-width="1" opacity="1" d="M 253.5 506 L 257.5 511 L 253.5 506 Z " /><path fill="rgb(251,170,185)" stroke="rgb(251,170,185)" stroke-width="1" opacity="1" d="M 460.5 510 L 461 511.5 L 459.5 514 L 459 512.5 L 460.5 510 Z " /><path fill="rgb(251,170,185)" stroke="rgb(251,170,185)" stroke-width="1" opacity="1" d="M 261.5 513 L 263.5 516 L 261.5 513 Z " /><path fill="rgb(251,170,185)" stroke="rgb(251,170,185)" stroke-width="1" opacity="1" d="M 265.5 516 L 266.5 518 L 265.5 516 Z " /><path fill="rgb(251,170,185)" stroke="rgb(251,170,185)" stroke-width="1" opacity="1" d="M 456.5 520 L 457 521.5 L 455 522.5 L 456.5 520 Z " /><path fill="rgb(251,170,185)" stroke="rgb(251,170,185)" stroke-width="1" opacity="1" d="M 454.5 524 L 455 525.5 L 453.5 528 L 453 526.5 L 454.5 524 Z " /><path fill="rgb(251,170,185)" stroke="rgb(251,170,185)" stroke-width="1" opacity="1" d="M 452.5 529 L 452 530.5 L 450.5 533 L 451 531.5 L 452.5 529 Z " /><path fill="rgb(251,170,185)" stroke="rgb(251,170,185)" stroke-width="1" opacity="1" d="M 447.5 538 L 446.5 540 L 447.5 538 Z " /><path fill="rgb(251,170,185)" stroke="rgb(251,170,185)" stroke-width="1" opacity="1" d="M 442.5 546 L 441.5 548 L 442.5 546 Z " /><path fill="rgb(251,170,185)" stroke="rgb(251,170,185)" stroke-width="1" opacity="1" d="M 440.5 549 L 438.5 552 L 440.5 549 Z " /><path fill="rgb(251,170,185)" stroke="rgb(251,170,185)" stroke-width="1" opacity="1" d="M 436.5 554 L 434.5 557 L 436.5 554 Z " /><path fill="rgb(251,170,185)" stroke="rgb(251,170,185)" stroke-width="1" opacity="1" d="M 433.5 558 L 429.5 563 L 433.5 558 Z " /><path fill="rgb(251,170,185)" stroke="rgb(251,170,185)" stroke-width="1" opacity="1" d="M 426.5 566 L 418.5 575 L 426.5 566 Z " /><path fill="rgb(251,170,185)" stroke="rgb(251,170,185)" stroke-width="1" opacity="1" d="M 415.5 576 L 411.5 581 L 415.5 576 Z " /><path fill="rgb(251,170,185)" stroke="rgb(251,170,185)" stroke-width="1" opacity="1" d="M 206.5 582 L 208.5 585 L 206.5 582 Z " /><path fill="rgb(251,170,185)" stroke="rgb(251,170,185)" stroke-width="1" opacity="1" d="M 407.5 583 L 406.5 585 L 407.5 583 Z " /><path fill="rgb(251,170,185)" stroke="rgb(251,170,185)" stroke-width="1" opacity="1" d="M 210.5 585 L 212.5 588 L 210.5 585 Z " /><path fill="rgb(251,170,185)" stroke="rgb(251,170,185)" stroke-width="1" opacity="1" d="M 404.5 585 L 402.5 588 L 404.5 585 Z " /><path fill="rgb(251,170,185)" stroke="rgb(251,170,185)" stroke-width="1" opacity="1" d="M 214.5 588 L 215.5 590 L 214.5 588 Z " /><path fill="rgb(251,170,185)" stroke="rgb(251,170,185)" stroke-width="1" opacity="1" d="M 400.5 588 L 399.5 590 L 400.5 588 Z " /><path fill="rgb(251,170,185)" stroke="rgb(251,170,185)" stroke-width="1" opacity="1" d="M 217.5 590 L 218.5 592 L 217.5 590 Z " /><path fill="rgb(251,170,185)" stroke="rgb(251,170,185)" stroke-width="1" opacity="1" d="M 397.5 590 L 396.5 592 L 397.5 590 Z " /><path fill="rgb(251,170,185)" stroke="rgb(251,170,185)" stroke-width="1" opacity="1" d="M 220.5 592 L 221.5 594 L 220.5 592 Z " /><path fill="rgb(251,170,185)" stroke="rgb(251,170,185)" stroke-width="1" opacity="1" d="M 394.5 592 L 393.5 594 L 394.5 592 Z " /><path fill="rgb(251,170,185)" stroke="rgb(251,170,185)" stroke-width="1" opacity="1" d="M 225.5 595 L 226.5 597 L 225.5 595 Z " /><path fill="rgb(251,170,185)" stroke="rgb(251,170,185)" stroke-width="1" opacity="1" d="M 389.5 595 L 388.5 597 L 386.5 598 L 387.5 596 L 389.5 595 Z " /><path fill="rgb(251,170,185)" stroke="rgb(251,170,185)" stroke-width="1" opacity="1" d="M 240.5 603 L 244 604.5 L 242.5 605 L 240.5 603 Z " /><path fill="rgb(251,170,185)" stroke="rgb(251,170,185)" stroke-width="1" opacity="1" d="M 373.5 603 L 375 603.5 L 369.5 606 L 369.5 605 L 373.5 603 Z " /><path fill="rgb(251,170,185)" stroke="rgb(251,170,185)" stroke-width="1" opacity="1" d="M 255.5 609 L 260 610.5 L 258.5 611 L 255.5 610 L 255.5 609 Z " /><path fill="rgb(251,170,185)" stroke="rgb(251,170,185)" stroke-width="1" opacity="1" d="M 261.5 611 L 264 611.5 L 261.5 612 L 261.5 611 Z " /><path fill="rgb(251,170,185)" stroke="rgb(251,170,185)" stroke-width="1" opacity="1" d="M 351.5 611 L 354 611.5 L 351.5 612 L 351.5 611 Z " /><path fill="rgb(251,170,185)" stroke="rgb(251,170,185)" stroke-width="1" opacity="1" d="M 343.5 613 L 346 613.5 L 343.5 614 L 343.5 613 Z " /><path fill="rgb(251,170,185)" stroke="rgb(251,170,185)" stroke-width="1" opacity="1" d="M 273.5 614 L 276 614.5 L 273.5 615 L 273.5 614 Z " /><path fill="rgb(251,170,185)" stroke="rgb(251,170,185)" stroke-width="1" opacity="1" d="M 339.5 614 L 342 614.5 L 339.5 615 L 339.5 614 Z " /><path fill="rgb(251,170,185)" stroke="rgb(251,170,185)" stroke-width="1" opacity="1" d="M 278.5 615 L 282 615.5 L 278.5 616 L 278.5 615 Z " /><path fill="rgb(251,170,185)" stroke="rgb(251,170,185)" stroke-width="1" opacity="1" d="M 333.5 615 L 336 615.5 L 333.5 616 L 333.5 615 Z " /><path fill="rgb(251,170,185)" stroke="rgb(251,170,185)" stroke-width="1" opacity="1" d="M 284.5 616 L 289 616.5 L 284.5 617 L 284.5 616 Z " /><path fill="rgb(251,170,185)" stroke="rgb(251,170,185)" stroke-width="1" opacity="1" d="M 325.5 616 L 330 616.5 L 325.5 617 L 325.5 616 Z " /><path fill="rgb(251,170,185)" stroke="rgb(251,170,185)" stroke-width="1" opacity="1" d="M 294.5 617 L 322 617.5 L 294.5 618 L 294.5 617 Z " /><path fill="rgb(1,241,237)" stroke="rgb(1,241,237)" stroke-width="1" opacity="1" d="M 383 109 L 468.5 109 L 469 110.5 L 470 114.5 Q 467.7 115.8 469 120.5 L 470 121.5 L 470 128 Q 473 127 472 130 L 405.5 130 L 404 131.5 L 404 487.5 L 401 496.5 L 401 500.5 L 395 514.5 Q 389.2 525.2 380.5 533 Q 370.1 542.6 355.5 548 L 348.5 549 L 344.5 551 L 325.5 552 L 324.5 551 L 312.5 550 L 295.5 543 Q 283.6 536.4 275 526.5 L 273 522.5 L 276 522.5 Q 275.3 524.8 277.5 524 L 280 524.5 Q 279.2 527.1 282.5 526 L 284.5 527 L 286 526.5 Q 285.1 529.5 289.5 528 L 291.5 529 L 294 528 Q 292.9 531.5 300.5 530 L 302 529.5 L 302.5 531 L 314.5 531 L 315.5 530 L 322 530 Q 320.9 527.3 323.5 528 L 325.5 529 L 330 528 L 330.5 526 L 332.5 527 L 336 525.5 L 335.5 524 L 337.5 525 L 340 524 L 340.5 522 L 342.5 522 Q 344.8 522.8 344 520.5 L 346.5 520 L 348 519.5 L 347.5 518 Q 348.7 520.3 350 517.5 L 350.5 516 L 351.5 517 L 354.5 514 L 360 509.5 Q 359.3 507.3 361.5 508 L 369 499.5 L 368.5 498 L 370 498.5 L 371 496.5 L 370.5 495 L 372 495.5 L 373 493.5 L 372.5 492 Q 374.8 492.8 374 490.5 L 374.5 488 Q 376.8 488.8 376 486.5 L 379 479.5 L 378.5 478 Q 381.1 478.8 380 475.5 L 379.5 474 Q 381.8 474.8 381 472.5 L 380 470 Q 383.5 471.1 382 463.5 L 383 462.5 L 383 109 Z " /><path fill="rgb(1,241,237)" stroke="rgb(1,241,237)" stroke-width="1" opacity="1" d="M 529.5 214 L 532 214.5 L 532.5 216 L 534 215.5 L 533.5 217 L 535.5 216 L 535.5 218 L 538.5 219 L 540 218.5 Q 539.2 221.1 542.5 220 L 550.5 223 L 552 222.5 Q 551.3 224.8 553.5 224 L 556.5 225 Q 558 222.5 559.5 226 L 565.5 227 L 567 226.5 Q 566.4 229.3 572.5 228 L 575.5 229 L 578 228 Q 576.9 231.5 584.5 230 L 589.5 231 L 591 230.5 L 592 232.5 L 592 249 L 571.5 244 L 553.5 236 Q 540 228 530 216.5 L 529.5 214 Z " /><path fill="rgb(1,241,237)" stroke="rgb(1,241,237)" stroke-width="1" opacity="1" d="M 290 294 L 295.5 295 L 304.5 295 Q 305.7 292.8 310.5 294 L 311.5 295 L 320.5 295 L 325 294 Q 323.7 297.3 328.5 296 L 330 297.5 L 330 315 L 327.5 316 L 313.5 316 L 312.5 317 L 304.5 317 Q 301.2 319.7 294.5 319 L 274.5 325 L 255.5 333 Q 226.6 348.6 206 372.5 L 197 383.5 L 183 406.5 L 173 431.5 L 167 463.5 L 167 494.5 L 168 495.5 L 170 512.5 L 175 531.5 L 187 558.5 L 195 570.5 L 185 561.5 L 179.5 554 L 178 554.5 Q 180.5 553 177 551.5 L 174.5 548 L 173 547.5 Q 175.5 546 172 544.5 L 167.5 536 L 166 536.5 L 166 534.5 L 158 516 L 156 515.5 L 156 513.5 Q 157.1 510.2 154.5 511 L 154 508.5 Q 155.5 504.1 152.5 505 L 153 503.5 L 152 499 Q 149.3 500.1 150 497.5 L 151 495.5 L 150 490 L 148 489.5 L 149 486.5 Q 146.8 485.2 148 480.5 L 146 477.5 L 147 472.5 L 146 471.5 L 146 440.5 L 147 435.5 L 146 432 Q 150 433.4 148 426.5 L 149 423.5 Q 146.5 422 150 420.5 L 151 414.5 L 150.5 413 Q 153.1 413.8 152 410.5 L 153 407.5 L 152.5 406 Q 155.1 406.8 154 403.5 L 155 401.5 L 154.5 400 L 156 400.5 L 157 396.5 L 156.5 395 Q 158.8 395.8 158 393.5 L 161 387.5 L 160.5 386 L 162 385.5 L 161.5 384 L 163 383.5 L 162.5 382 Q 164.8 382.8 164 380.5 L 164.5 378 L 166 378.5 L 169 372.5 L 168.5 371 L 170 371.5 L 171 369.5 L 170.5 368 L 173 366.5 L 172.5 365 L 175 363.5 L 174.5 362 L 178 359.5 L 181 355.5 L 180.5 354 L 182 354.5 L 187 348.5 L 186.5 347 L 187.5 348 L 192 343.5 L 195.5 339 L 198 337.5 Q 195.8 336.2 198.5 335 L 199.5 336 L 204 331.5 Q 203.2 328.9 206.5 330 L 224 317.5 L 224.5 316 L 226.5 316 L 235 311.5 L 235.5 310 L 237.5 311 L 239.5 308 L 241.5 309 L 244 308 L 244.5 306 L 246.5 306 Q 249.8 307.1 249 304.5 L 251.5 304 Q 254.8 305.1 254 302.5 L 255.5 303 L 261.5 300 L 263.5 300 Q 267.8 300.8 268.5 298 L 271.5 299 L 278.5 296 L 282.5 297 L 283.5 296 L 290 296 L 290 294 Z " /><path fill="rgb(255,255,255)" stroke="rgb(255,255,255)" stroke-width="1" opacity="1" d="M 407.5 132 L 406.5 134 L 407.5 132 Z " /><path fill="rgb(255,255,255)" stroke="rgb(255,255,255)" stroke-width="1" opacity="1" d="M 414.5 132 L 420 132.5 L 414.5 133 L 414.5 132 Z " /><path fill="rgb(255,255,255)" stroke="rgb(255,255,255)" stroke-width="1" opacity="1" d="M 408.5 134 L 410 134.5 L 409.5 136 L 413 135.5 L 412.5 134 L 416.5 136 Q 419.4 133.4 425.5 134 L 425.5 135 Q 419.7 134.2 418 137.5 L 418 144 L 432 144 L 432 138 Q 427.9 139.3 429 136 L 470.5 136 L 471 137.5 L 471 139.5 L 473 143.5 L 473 148.5 L 478.5 160 L 480 159.5 L 479 162.5 L 481 168 L 478 168 L 478 175.5 Q 481.8 177.4 480 184 L 491.5 184 L 492 182.5 L 493 182.5 Q 492.3 184.8 494.5 184 L 497 185.5 L 495 186.5 L 498 188 L 498.5 190 L 500 189.5 Q 497.3 191.3 501.5 193 Q 504.1 192.2 503 195.5 L 507 198.5 L 503 200 L 503 208 L 505.5 208 L 512 209 L 512 216 L 519 216 L 519 224 L 521.5 224 L 528.5 226 L 530 223.5 L 528.5 224 Q 524.8 225 526 222 L 530.5 223 L 532 222.5 L 531 225 L 534.5 224 Q 537.3 225.3 535 226.5 Q 534.3 228.8 536.5 228 L 538 228.5 L 538.5 227 L 541 231 L 553 238.5 L 551 239.5 L 555 241 L 555.5 239 L 561 242.5 L 560 244.5 L 561 247 L 565.5 250 L 566 248 L 573.5 249 L 575.5 248 L 577.5 248 L 588 250.5 L 585 252.5 L 586.5 253 L 588.5 253 L 591 253.5 L 591 314 L 576.5 314 L 575.5 315 Q 572.2 311.2 564 313 L 563.5 315 L 561.5 313 L 556.5 313 Q 555.8 310.3 551.5 311 L 549.5 311 L 544.5 311 L 542.5 309 L 534.5 308 L 528.5 305 L 526.5 305 L 523.5 305 L 519 301.5 L 519.5 300 L 512.5 297 Q 505.7 298.3 503 295.5 L 506 294.5 Q 500 295 497.5 292 L 496 292.5 L 494.5 290 L 492.5 289 L 491 289.5 L 496 286.5 L 496 280 L 488 280 Q 489.7 284.1 485.5 283 L 479.5 279 L 477.5 282 L 474 281 Q 475.3 277.7 470.5 279 L 468 278 L 468 447.5 L 469 450 L 467 450.5 L 467 463.5 L 468 465.5 L 466 469.5 L 467 472.5 Q 464 473.5 465 478.5 L 466 480.5 L 465 482.5 L 465 484.5 L 465 491.5 L 462 497.5 L 463 499.5 L 460 503.5 L 460 507.5 L 457 517 L 454 518.5 L 450 528 Q 446.3 526.6 448 532.5 L 445.5 538 L 443.5 537 L 444 538.5 L 445 540.5 L 443 541 L 442.5 544 L 440 543 L 441 545.5 L 439 546.5 L 440 547.5 L 436.5 551 Q 434.3 550.3 435 552.5 Q 430.3 553.9 431 559 L 427 560.5 L 427 562.5 L 426.5 564 Q 424.8 561.2 423 565.5 L 423.5 567 L 418.5 571 L 416 571 Q 416.8 574.8 413.5 576 Q 408 575 407 578.5 Q 409.1 584.4 404.5 583 L 399 586 L 399 589 L 395 589 L 395 590.5 L 393.5 590 L 392 590.5 Q 394.8 592.3 390.5 594 L 380.5 599 L 376 599 Q 377.1 601.7 374.5 601 L 372.5 603 L 364.5 605 L 360 604 L 358.5 608 L 350.5 611 L 343.5 611 L 340.5 613 L 335.5 613 L 328.5 615 L 316.5 615 L 315.5 616 L 313.5 616 L 308.5 615 L 306.5 616 L 301.5 615 L 299.5 616 L 298.5 615 L 287.5 615 L 274.5 611 L 272.5 611 L 267.5 610 L 267.5 611 L 269 611.5 L 267.5 612 L 265 610.5 L 265.5 609 Q 260 610.5 258.5 608 L 257 608.5 Q 257.9 605.1 252.5 607 L 248.5 605 L 239 600.5 Q 241.3 599.3 238.5 598 L 232.5 596 L 232.5 597 L 235 598.5 L 233.5 599 L 226 594.5 L 228 593.5 L 224 590.5 Q 226.3 583.8 219.5 586 L 211.5 583 L 209.5 583 Q 205.5 583.5 205 580.5 L 204 578.5 L 204.5 577 L 201 574.5 Q 202.3 568.3 198.5 567 L 196.5 568 L 195.5 566 L 197 566.5 L 195.5 564 L 193 563.5 L 195 563 L 193.5 560 L 192.5 562 L 191 559.5 L 191.5 558 L 189 556.5 L 192 555.5 Q 192.5 550.5 188.5 550 L 188 552.5 L 188.5 554 L 179 535.5 L 176 521.5 L 177 518.5 L 176 514.5 L 176 512.5 L 175 505.5 L 173 503.5 L 174 500.5 L 171 497.5 L 169 486.5 L 172 480.5 L 169 469.5 L 170.5 464 L 171.5 467 L 173 458.5 L 172 456 L 176 453.5 L 178 442 L 176 441.5 L 177 436 Q 174.3 437.1 175 434.5 L 178.5 432 L 192 432 L 192 416 L 208 416 L 208 408 L 193.5 408 L 193 405 L 189.5 405 L 190 403.5 L 191.5 400 Q 194.1 400.7 193 398 L 191 397.5 L 194.5 393 L 196 393 L 196 390 Q 198.7 391.1 198 388.5 L 197.5 387 L 201 389.5 L 199 393 L 195 395.5 L 195 400 L 208 400 L 208 385.5 L 209.5 385 L 216 384 L 216 369.5 L 217.5 368 L 224 368 L 224 363.5 L 226 359.5 L 225 357 L 228.5 355 L 232 356.5 L 231.5 359 Q 228.9 358.3 230 361 Q 233.1 359 240 360 L 240 350.5 L 241 348.5 Q 237.3 346.7 240.5 345 Q 243.8 346.1 243 343.5 L 244.5 344 L 247 342.5 L 246.5 341 L 251.5 340 L 251 341.5 L 252.5 344 Q 258.6 345.3 258 342.5 L 267.5 336 L 288 336 L 288 325.5 L 286.5 325 L 286.5 324 L 289.5 323 L 290.5 330 L 292.5 327 L 298.5 328 Q 299.8 325 304 326 L 305 320 L 320 321 L 320 336 L 327.5 336 L 328 336.5 L 328 378.5 L 327 383 Q 321.9 384.2 320.5 381 L 312 381 L 311.5 376 L 296 376 L 296 381 L 294.5 381 Q 292.8 383.8 287.5 383 L 285.5 385 L 279 384 Q 280.5 387.7 277.5 387 L 275.5 387 Q 270.1 385.1 271 388.5 Q 273.3 389.8 270.5 391 L 263 394.5 L 263 396 L 261 396 Q 262.1 398.7 259.5 398 L 253.5 405 L 252 404.5 L 250.5 408 L 249 407.5 L 247.5 411 Q 245.3 410.3 246 412.5 L 243.5 417 L 242 416.5 L 241 421 L 239 421.5 L 239 423.5 L 239 426.5 L 234 438.5 L 232 465.5 L 233 469.5 L 232 472 L 234 472.5 L 233 474.5 L 235 484.5 L 234 488 Q 237.7 486.5 237 489.5 L 239 489.5 L 241 496 L 238 496 L 238 503.5 Q 241.8 505.4 240 512 Q 245.4 513.5 247 510.5 L 249.5 507 L 251 507.5 L 249 508 Q 247.5 511.8 250.5 511 L 252.5 512 L 254 511.5 Q 253.3 513.8 255.5 513 L 258 514 L 259.5 517 Q 261.8 516.3 261 518.5 L 262 522 L 264.5 521 L 265.5 523 L 264 522.5 L 263 525.5 Q 264.3 528.3 265.5 526 Q 268.8 524.9 268 527.5 L 269 527.5 L 270.5 525 L 271 527.5 L 271 529 L 273 529 L 273 531 L 275 531 L 275 533 L 277 533 L 277 535 L 279 535 Q 277.9 537.7 280.5 537 L 282.5 536 L 282.5 537 Q 279.9 536.3 281 539 L 283 539 Q 281.9 541.7 284.5 541 L 292.5 547 L 295 547 Q 293.7 550.3 298.5 549 L 302 550 L 304 553.5 L 304 560 L 367.5 560 L 368 559.5 L 368 552.5 L 369.5 552 L 368.5 550 L 365 550 Q 366.1 553.3 362 552 Q 360.9 549.3 363.5 550 L 363.5 549 Q 361.3 549.8 362 547.5 L 364.5 549 Q 370.4 550.7 369 547 Q 364.9 548.3 366 545 L 370.5 543 L 372.5 544 Q 370.8 542 374.5 540 L 376 540.5 L 373 542.5 L 378.5 546 L 382 543.5 L 382 540 Q 385 541.3 384 537.5 L 387 536 Q 385.9 533.3 388.5 534 L 392 529.5 L 391 527.5 L 393 528.5 L 393.5 530 L 401 528 L 401 520 L 398.5 520 Q 394 518 397.5 516 L 399 516.5 Q 399.8 514.3 397.5 515 L 398.5 513 L 399.5 515 L 400.5 512 Q 403.1 512.8 402 509.5 L 401.5 508 Q 402.8 510.2 404 507.5 L 406 503.5 L 406 498 L 410 495.5 L 410 492.5 L 407 486.5 L 407 481.5 L 408 480.5 L 408 143.5 L 409 138 Q 406 139.3 407 135.5 L 408.5 134 Z M 411 138 L 411 139 L 413 139 L 411 138 Z M 540 230 Q 538 233 541 232 L 540 230 Z M 228 357 L 226 359 L 229 359 Q 230 356 228 357 Z M 173 476 Q 170 481 174 480 L 173 476 Z M 172 488 L 171 494 L 173 495 L 172 488 Z M 180 529 L 179 532 L 180 532 L 180 529 Z M 208 579 Q 205 581 208 582 L 209 582 L 208 579 Z M 392 586 Q 391 589 394 588 Q 395 585 392 586 Z " /><path fill="rgb(255,255,255)" stroke="rgb(255,255,255)" stroke-width="1" opacity="1" d="M 519.5 213 L 522 214 Q 523.3 218.1 520 217 L 519.5 213 Z " /><path fill="rgb(255,255,255)" stroke="rgb(255,255,255)" stroke-width="1" opacity="1" d="M 569 245 L 573 246.5 L 569 247 L 569 245 Z " /><path fill="rgb(255,255,255)" stroke="rgb(255,255,255)" stroke-width="1" opacity="1" d="M 492.5 284 L 493 285.5 L 489.5 288 L 492.5 284 Z " /><path fill="rgb(255,255,255)" stroke="rgb(255,255,255)" stroke-width="1" opacity="1" d="M 577.5 315 L 589 315.5 L 577.5 316 L 577.5 315 Z " /><path fill="rgb(255,255,255)" stroke="rgb(255,255,255)" stroke-width="1" opacity="1" d="M 266.5 331 L 265.5 333 L 264 332.5 L 266.5 331 Z " /><path fill="rgb(255,255,255)" stroke="rgb(255,255,255)" stroke-width="1" opacity="1" d="M 257.5 335 L 258.5 337 L 257.5 335 Z " /><path fill="rgb(255,255,255)" stroke="rgb(255,255,255)" stroke-width="1" opacity="1" d="M 253.5 337 L 257 338 L 255.5 342 L 254 341.5 L 254.5 340 L 252 338.5 L 253.5 337 Z " /><path fill="rgb(255,255,255)" stroke="rgb(255,255,255)" stroke-width="1" opacity="1" d="M 237.5 347 L 238 349 L 236 348.5 L 237.5 347 Z " /><path fill="rgb(255,255,255)" stroke="rgb(255,255,255)" stroke-width="1" opacity="1" d="M 234.5 349 L 232.5 352 L 234.5 349 Z " /><path fill="rgb(255,255,255)" stroke="rgb(255,255,255)" stroke-width="1" opacity="1" d="M 203.5 380 L 203 381.5 Q 204.1 384.8 201.5 384 L 199 385.5 L 203.5 380 Z " /><path fill="rgb(255,255,255)" stroke="rgb(255,255,255)" stroke-width="1" opacity="1" d="M 184.5 412 L 185 416.5 L 184.5 420 L 183 416.5 Q 182.3 412.8 184.5 412 Z " /><path fill="rgb(255,255,255)" stroke="rgb(255,255,255)" stroke-width="1" opacity="1" d="M 181.5 417 L 182 422 L 180 421.5 L 181.5 417 Z " /><path fill="rgb(255,255,255)" stroke="rgb(255,255,255)" stroke-width="1" opacity="1" d="M 184.5 422 L 185 425.5 L 182.5 430 L 182 427.5 L 184.5 422 Z " /><path fill="rgb(255,255,255)" stroke="rgb(255,255,255)" stroke-width="1" opacity="1" d="M 406.5 488 L 408 494.5 L 405 497.5 Q 405.8 501.3 403.5 502 L 403 499.5 L 406.5 488 Z " /><path fill="rgb(255,255,255)" stroke="rgb(255,255,255)" stroke-width="1" opacity="1" d="M 174.5 512 L 175 514.5 L 173 515.5 L 174.5 512 Z " /><path fill="rgb(255,255,255)" stroke="rgb(255,255,255)" stroke-width="1" opacity="1" d="M 379.5 536 L 381.5 537 L 383 536.5 L 377.5 539 L 379.5 536 Z " /><path fill="rgb(255,255,255)" stroke="rgb(255,255,255)" stroke-width="1" opacity="1" d="M 357.5 549 L 356.5 551 L 357.5 549 Z " /><path fill="rgb(255,255,255)" stroke="rgb(255,255,255)" stroke-width="1" opacity="1" d="M 304.5 550 L 307 550.5 L 304.5 551 L 304.5 550 Z " /><path fill="rgb(255,255,255)" stroke="rgb(255,255,255)" stroke-width="1" opacity="1" d="M 310.5 551 L 313 552.5 L 311.5 553 L 310.5 551 Z " /><path fill="rgb(255,255,255)" stroke="rgb(255,255,255)" stroke-width="1" opacity="1" d="M 350 551 L 352 551.5 L 350 552.5 L 350 551 Z " /><path fill="rgb(255,255,255)" stroke="rgb(255,255,255)" stroke-width="1" opacity="1" d="M 337.5 554 L 341 554.5 L 337.5 555 L 337.5 554 Z " /><path fill="rgb(250,43,84)" stroke="rgb(250,43,84)" stroke-width="1" opacity="1" d="M 472.5 131 L 493 131 L 493 144.5 L 497 163.5 L 501 174.5 Q 507.5 191 518 203.5 L 516.5 203 L 500 187.5 Q 486.5 172 478 151.5 L 472.5 131 Z " /><path fill="rgb(250,43,84)" stroke="rgb(250,43,84)" stroke-width="1" opacity="1" d="M 593 250 Q 601.8 252.9 614.5 253 L 616 254.5 L 616 339.5 L 614.5 341 L 589.5 340 L 552.5 332 L 523.5 320 L 493 303 L 493 493.5 L 492 494.5 L 492 502.5 L 488 521.5 L 478 548.5 L 463 573.5 L 448 592 L 446 592 L 446 594 L 444 594 Q 445.1 596.7 442.5 596 Q 421.3 617.8 390.5 630 L 379.5 634 L 351.5 640 L 319.5 641 L 318.5 640 L 309.5 640 L 288.5 636 L 261.5 626 Q 229.6 610.9 208 585.5 L 209.5 585 L 226.5 597 Q 242.4 606.1 261.5 612 L 284.5 617 L 293.5 617 L 294.5 618 L 321.5 618 L 322.5 617 L 341.5 615 L 370.5 606 Q 403.9 591.4 427 566.5 L 441 549.5 L 457 521.5 L 466 495.5 L 469 479.5 Q 467.5 474 470 472.5 L 470 280 L 506.5 300 L 532.5 310 L 565.5 317 L 591.5 318 L 593 316.5 L 593 250 Z " /><path fill="rgb(250,43,84)" stroke="rgb(250,43,84)" stroke-width="1" opacity="1" d="M 331 317 L 347.5 317 L 354 318 L 354 408.5 L 352.5 409 L 343.5 406 L 318.5 406 Q 290.4 411.9 275 430.5 Q 264.1 442.6 259 460.5 L 257 471.5 L 257 486.5 L 260 501.5 L 268 517.5 L 265.5 516 L 251 503.5 Q 240.7 491.8 236 474.5 L 234 463.5 L 234 449.5 L 239 428.5 Q 245.8 412.8 257.5 402 Q 269.7 390.7 287.5 385 L 297.5 383 L 318.5 383 L 331 386 L 331 317 Z " /><path fill="rgb(250,43,84)" stroke="rgb(250,43,84)" stroke-width="1" opacity="1" d="M 204.5 581 L 205.5 583 L 204.5 581 Z " /></svg>